<svg width="21" height="20" viewBox="0 0 21 20" fill="none" xmlns="http://www.w3.org/2000/svg">
<path d="M20.719 18.3126L17.009 14.6326C18.4491 12.837 19.1465 10.5579 18.9578 8.26391C18.7691 5.96991 17.7087 3.83539 15.9945 2.29925C14.2804 0.763116 12.0428 -0.0578805 9.74192 0.00507995C7.44104 0.0680404 5.25172 1.01017 3.62414 2.63775C1.99656 4.26533 1.05443 6.45465 0.991469 8.75553C0.928509 11.0564 1.7495 13.294 3.28564 15.0081C4.82178 16.7223 6.9563 17.7827 9.2503 17.9714C11.5443 18.1601 13.8234 17.4627 15.619 16.0226L19.299 19.7026C19.392 19.7963 19.5026 19.8707 19.6244 19.9215C19.7463 19.9723 19.877 19.9984 20.009 19.9984C20.141 19.9984 20.2717 19.9723 20.3936 19.9215C20.5154 19.8707 20.626 19.7963 20.719 19.7026C20.8992 19.5161 21 19.2669 21 19.0076C21 18.7483 20.8992 18.4991 20.719 18.3126V18.3126ZM10.009 16.0226C8.62453 16.0226 7.27115 15.6121 6.12001 14.8429C4.96886 14.0737 4.07166 12.9805 3.54184 11.7014C3.01203 10.4223 2.8734 9.01484 3.1435 7.65698C3.4136 6.29911 4.08028 5.05183 5.05925 4.07286C6.03822 3.09389 7.2855 2.42721 8.64337 2.15711C10.0012 1.88702 11.4087 2.02564 12.6878 2.55545C13.9669 3.08527 15.0601 3.98247 15.8293 5.13362C16.5985 6.28476 17.009 7.63814 17.009 9.02261C17.009 10.8791 16.2715 12.6596 14.9587 13.9724C13.646 15.2851 11.8655 16.0226 10.009 16.0226V16.0226Z" fill="#BBBBBB"/>
</svg>
