<svg width="24" height="24" viewBox="0 0 24 24" fill="none" xmlns="http://www.w3.org/2000/svg">
<path d="M9.5 22C10.3284 22 11 21.3284 11 20.5C11 19.6716 10.3284 19 9.5 19C8.67157 19 8 19.6716 8 20.5C8 21.3284 8.67157 22 9.5 22Z" fill="#323C92"/>
<path d="M19.5 22C20.3284 22 21 21.3284 21 20.5C21 19.6716 20.3284 19 19.5 19C18.6716 19 18 19.6716 18 20.5C18 21.3284 18.6716 22 19.5 22Z" fill="#323C92"/>
<path d="M1 1H5L7.68 14.39C7.77144 14.8504 8.02191 15.264 8.38755 15.5583C8.75318 15.8526 9.2107 16.009 9.68 16H19.4C19.8693 16.009 20.3268 15.8526 20.6925 15.5583C21.0581 15.264 21.3086 14.8504 21.4 14.39L23 6H6" stroke="#323C92" stroke-width="2" stroke-linecap="round" stroke-linejoin="round"/>
</svg>
