<?xml version="1.0" encoding="utf-8"?><svg viewBox="0 0 193 193" xmlns="http://www.w3.org/2000/svg" xmlns:xlink="http://www.w3.org/1999/xlink"><style>:root>svg{display:none}:root>svg:target{display:block}</style><svg fill="none" viewBox="0 0 193 193" id="car01" xmlns="http://www.w3.org/2000/svg"><g clip-path="url(#aclip0)"><path d="M111.202 88.336l73.448 5.067c-1.634-49.57-42.328-89.257-92.297-89.257-29.452 0-55.684 13.788-72.595 35.261l91.444 48.93z" fill="#D4EDEF"/><path d="M12.956 143.689c16.108 27.043 45.635 45.165 79.398 45.165s63.289-18.122 79.397-45.165H12.956z" fill="#5F5E6A"/><path d="M80.078 143.689H12.956c13.617 22.861 36.823 39.345 64.071 43.897-18.026-8.555-16.583-37.643 3.05-43.897z" fill="#5F5E6A"/><path d="M172.188 108.373a5.22 5.22 0 01-4.083-1.966l-5.501-6.897a5.222 5.222 0 014.084-8.478h16.835a23.262 23.262 0 00-11.112-7.63c-14.422-4.565-36.777-6.018-47.904-6.471-4.35-.177-8.471-1.94-11.644-4.92-11.989-11.257-24.514-20.587-32.865-26.405a36.32 36.32 0 00-20.765-6.514H20.01a92.68 92.68 0 00-6.063 8.598L.961 83.172H.96A93.067 93.067 0 000 96.5c0 15.416 3.782 29.947 10.462 42.724h178.244v-30.85h-16.518v-.001z" fill="#787885"/><path d="M52.56 114.13V49.363c0-.983-.318-1.946-.927-2.718-3.173-4.022-.26-6.677.665-7.37a36.401 36.401 0 00-3.575-.182H20.01a92.692 92.692 0 00-6.063 8.597L.961 83.172H.96A93.056 93.056 0 000 96.5c0 15.416 3.782 29.947 10.462 42.724h65.412c-23.964-.002-23.315-25.094-23.315-25.094zM114.423 131.372a3.22 3.22 0 01-3.221-3.22V88.336a3.22 3.22 0 016.441 0v39.816a3.22 3.22 0 01-3.22 3.22z" fill="#7A7585"/><path d="M108.563 79.643a26.994 26.994 0 01-1.578-1.37c-11.597-10.89-23.746-19.943-31.896-25.62a27.607 27.607 0 00-15.857-4.973h-45.28A91.767 91.767 0 00.96 83.172h106.434c1.834-.029 2.598-2.38 1.168-3.529z" fill="#363540"/><path d="M51.449 47.916a28.04 28.04 0 00-3.599-.236H13.952A91.767 91.767 0 00.96 83.172h50.726V49.363c0-.495-.08-.984-.238-1.447z" fill="#21212B"/><path d="M141.478 116.126c12.737 0 23.098 10.361 23.098 23.097h9.22c0-17.848-14.469-32.318-32.318-32.318-17.848 0-32.318 14.47-32.318 32.318h9.221c0-12.736 10.361-23.097 23.097-23.097z" fill="#7A7585"/><path d="M130.724 117.652a1.602 1.602 0 00-.968-1.738c-2.555-1.056-2.578-3.419-2.329-4.826a1.577 1.577 0 00-.116-.916c-10.747 5.25-18.151 16.285-18.151 29.051h9.221c0-8.813 4.963-16.487 12.24-20.379a8.06 8.06 0 01.103-1.192z" fill="#74727F"/><path d="M108.563 79.643a26.996 26.996 0 01-1.578-1.37 248.689 248.689 0 00-11.032-9.737c.007.02 3.295 10.062-7.141 14.637h18.584c1.833-.03 2.597-2.382 1.167-3.53z" fill="#21212B"/><path d="M42.9 47.68h9.718v35.493h-9.719V47.68z" fill="#5F5E6A"/><path d="M33.61 47.68h9.718v35.493H33.61V47.68z" fill="#4B4A55"/><path d="M111.093 75.494h-7.431a3.713 3.713 0 00-3.701 3.702v12.05a3.713 3.713 0 003.701 3.702h7.431c4.598 0 8.359-3.762 8.359-8.359v-2.736c0-4.597-3.761-8.359-8.359-8.359z" fill="#EEEFEB"/><path d="M106.495 86.589v-2.736c0-3.951 2.779-7.282 6.478-8.142a8.295 8.295 0 00-1.88-.217h-7.431a3.713 3.713 0 00-3.701 3.702v12.05a3.713 3.713 0 003.701 3.702h7.431c.646 0 1.275-.077 1.88-.217-3.699-.86-6.478-4.191-6.478-8.142z" fill="#D6D6D0"/><path d="M69.348 97.985h-8.801a3.22 3.22 0 010-6.44h8.801a3.22 3.22 0 010 6.44zM12.022 97.985H3.22a3.22 3.22 0 010-6.44h8.801a3.22 3.22 0 010 6.44z" fill="#EEEFEB"/><path d="M186.777 118.113h-2.438a4.806 4.806 0 00-4.792 4.792v4.585a4.806 4.806 0 004.792 4.792h2.438a4.806 4.806 0 004.792-4.792v-4.585a4.806 4.806 0 00-4.792-4.792z" fill="#E9E9E9"/><path d="M134.179 96.297h-4.722a3.22 3.22 0 110-6.44h4.722a3.22 3.22 0 110 6.44z" fill="#FFC743"/><path d="M118.381 138.794H10.235c1.93 3.74 4.11 7.33 6.513 10.75h104.295a22.95 22.95 0 01-2.662-10.75zM187.625 138.794h-23.049c0 3.88-.966 7.537-2.663 10.75h25.712a5.375 5.375 0 000-10.75z" fill="#4B4A55"/><path d="M141.478 164.462c-13.916 0-25.238-11.322-25.238-25.238s11.322-25.238 25.238-25.238 25.239 11.322 25.239 25.238c-.001 13.916-11.323 25.238-25.239 25.238z" fill="#21212B"/><path d="M156.946 159.145a1.125 1.125 0 00-.061-.008c-5.022-.524-5.552-3.567-5.408-5.374a1.634 1.634 0 00-1.101-1.671c-2.338-.83-2.668-2.689-2.605-3.913a1.587 1.587 0 00-1.067-1.566c-10.282-3.587-9.754-12.117-9.089-15.511.149-.76-.266-1.502-.978-1.807-2.097-.896-2.227-2.81-2.03-4.118.113-.752-.327-1.461-1.034-1.743-3.065-1.223-3.126-4.074-2.849-5.782a1.592 1.592 0 00-.248-1.137c-8.419 4.095-14.236 12.735-14.236 22.709 0 13.916 11.322 25.238 25.238 25.238 5.826 0 11.192-1.99 15.468-5.317z" fill="#000"/><path d="M154.818 140.774c.896-7.351-4.337-14.035-11.687-14.931-7.35-.895-14.035 4.337-14.931 11.687-.895 7.351 4.337 14.035 11.687 14.931 7.351.895 14.035-4.337 14.931-11.687z" fill="#D6D6D0"/><path d="M147.771 148.179a1.587 1.587 0 00-1.067-1.566c-10.282-3.587-9.754-12.117-9.089-15.511.149-.76-.266-1.502-.978-1.807-.956-.409-1.501-1.03-1.794-1.708-4.038 2.311-6.767 6.66-6.767 11.637 0 7.39 6.012 13.402 13.402 13.402 2.54 0 4.916-.709 6.942-1.941-.581-.827-.686-1.778-.649-2.506z" fill="#C6C6C1"/><path d="M141.478 155.846c-9.166 0-16.622-7.456-16.622-16.622s7.456-16.623 16.622-16.623 16.623 7.457 16.623 16.623-7.457 16.622-16.623 16.622zm0-26.805c-5.615 0-10.182 4.568-10.182 10.183 0 5.614 4.567 10.182 10.182 10.182s10.183-4.568 10.183-10.182c0-5.615-4.568-10.183-10.183-10.183z" fill="#EEEFEB"/><path d="M150.376 152.092c-2.338-.83-2.668-2.689-2.605-3.913a1.535 1.535 0 00-.188-.811 10.129 10.129 0 01-6.105 2.038c-5.614 0-10.182-4.568-10.182-10.182 0-4.154 2.501-7.733 6.075-9.315a1.673 1.673 0 00-.734-.614c-2.097-.896-2.227-2.81-2.03-4.118a1.568 1.568 0 00-.186-.999c-5.646 2.659-9.565 8.402-9.565 15.046 0 9.165 7.456 16.622 16.622 16.622 3.621 0 6.974-1.167 9.707-3.141a1.66 1.66 0 00-.809-.613zM183.418 90.9h-17.063a5.301 5.301 0 00-4.144 8.607l5.583 7.002a5.301 5.301 0 004.145 1.995h16.768v-2.759c0-3.276-.687-6.516-2.015-9.511a23.593 23.593 0 00-3.274-5.333z" fill="#D6D6D0"/><path d="M183.627 91.176c-4.23 1.028-7.372 4.838-7.372 9.385a9.647 9.647 0 004.165 7.943h8.286v-2.759c0-3.277-.686-6.517-2.014-9.511a23.55 23.55 0 00-3.065-5.058z" fill="#EEEFEB"/><path d="M70.734 138.794H10.235c1.93 3.74 4.11 7.33 6.513 10.75h53.986c-5.81-5.811 0-10.75 0-10.75z" fill="#363540"/></g><defs><clipPath id="aclip0"><path fill="#fff" d="M0 0h193v193H0z"/></clipPath></defs></svg><svg fill="none" viewBox="0 0 193 193" id="car02" xmlns="http://www.w3.org/2000/svg"><g clip-path="url(#bclip0)"><path d="M19.11 131.895l-1.377 19.022c16.797 22.996 43.963 37.937 74.62 37.937 38.466 0 71.434-23.519 85.322-56.959H19.11z" fill="#74727F"/><path d="M67.738 131.895c34.171 0 38.032 47.345 9.008 55.644a92.909 92.909 0 0015.608 1.315c38.465 0 71.433-23.519 85.321-56.959H67.738z" fill="#7A7585"/><path d="M92.353 4.146c-25.864 0-49.242 10.638-66.007 27.771l-7.236 99.978h158.557a92.042 92.042 0 007.04-35.395c0-51.005-41.348-92.354-92.353-92.354z" fill="#D4EDEF"/><path d="M177.071 133.314c.205-.471.407-.944.605-1.419h-.009c-.197.474-.392.949-.596 1.419z" fill="#E9E9E9"/><path d="M49.4 31.975L26.753 31.5a92.801 92.801 0 00-9.39 11.094h85.3a9.07 9.07 0 00-6.514-6.305c-14.372-3.615-32.75-4.021-46.75-4.314z" fill="#EEEFEB"/><path d="M28.57 42.414c1.078-.521 1.617-1.774 1.157-2.879-2.02-4.85 2.02-7.93 2.02-7.93l-4.994-.105a92.792 92.792 0 00-9.39 11.094h10.862c.116-.064.232-.125.345-.18z" fill="#D6D6D0"/><path d="M186.918 91.831c-.516-7.284-6.576-12.93-13.878-12.93h-48.146a5.603 5.603 0 01-4.226-1.927v25.339h42.002a5.528 5.528 0 015.188 3.617l5.519 14.963h15.601l-2.06-29.062z" fill="#C81515"/><path d="M0 96.5c0 1.953.068 3.89.187 5.813h17.98a5.53 5.53 0 015.188 3.617l11.469 31.097c.165.448.262.904.308 1.357H57.65V41.719H18C6.69 57.045 0 75.99 0 96.5z" fill="#BF0000"/><path d="M18 41.719C6.69 57.045 0 75.99 0 96.5c0 1.953.068 3.89.187 5.813h17.98a5.53 5.53 0 015.188 3.617l.35.95V52.216c0-6.24 2.745-8.775 4.865-9.802.345-.166.633-.408.852-.695H18.001z" fill="#BF0000"/><path d="M106.148 128.509l8.327-22.579a5.53 5.53 0 015.188-3.617h2.318V78.082a5.597 5.597 0 01-2.313-2.76l-11.582-29.889a5.814 5.814 0 00-5.422-3.714H56.338v86.79h49.81z" fill="#C81515"/><path d="M70.442 56.11v18.897a3.895 3.895 0 003.894 3.894h47.644v-.82a5.597 5.597 0 01-2.313-2.76l-8.953-23.105H74.336a3.896 3.896 0 00-3.894 3.895z" fill="#4B4A55"/><path d="M87.972 75.007V56.111a3.895 3.895 0 013.895-3.895h-17.53a3.895 3.895 0 00-3.895 3.895v18.896a3.895 3.895 0 003.894 3.895h17.53a3.895 3.895 0 01-3.894-3.895z" fill="#363540"/><path d="M38.27 52.216H11.293a91.727 91.727 0 00-9.611 26.686H38.27a3.895 3.895 0 003.895-3.895V56.111a3.894 3.894 0 00-3.895-3.895z" fill="#4B4A55"/><path d="M1.682 78.902h22.024V52.216H11.293a91.715 91.715 0 00-9.611 26.686z" fill="#363540"/><path d="M78.69 93.332h-6.499a3.28 3.28 0 010-6.56h6.5a3.28 3.28 0 010 6.56z" fill="#4E0000"/><path d="M140.955 93.332h-4.749a3.28 3.28 0 110-6.56h4.749a3.28 3.28 0 010 6.56z" fill="#FFC743"/><path d="M186.22 90.052h-1.301c-2.887 0-5.249 2.362-5.249 5.249v10.713c0 2.887 2.362 5.249 5.249 5.249h1.301c2.887 0 5.249-2.362 5.249-5.249V95.301c0-2.887-2.362-5.25-5.249-5.25z" fill="#EEEFEB"/><path d="M186.22 102.121h-1.301c-2.887 0-5.249-2.362-5.249-5.249v9.141c0 2.887 2.362 5.249 5.249 5.249h1.301c2.887 0 5.249-2.362 5.249-5.249v-9.14c0 2.886-2.362 5.248-5.249 5.248z" fill="#D6D6D0"/><path d="M123.122 70.898h-6.115a3.054 3.054 0 00-3.045 3.046v9.916a3.054 3.054 0 003.045 3.045h6.115c3.783 0 6.878-3.095 6.878-6.877v-2.252c0-3.782-3.095-6.878-6.878-6.878z" fill="#EEEFEB"/><path d="M119.347 80.028v-2.252c0-3.249 2.286-5.984 5.326-6.693a6.809 6.809 0 00-1.551-.185h-6.115a3.055 3.055 0 00-3.046 3.046v9.916a3.055 3.055 0 003.046 3.045h6.115c.534 0 1.052-.067 1.551-.184-3.04-.71-5.326-3.445-5.326-6.694z" fill="#D6D6D0"/><path d="M26.399 127.455l3.99 10.818c.186.506.295 1.021.348 1.534h76.357a6.216 6.216 0 01.348-1.534l3.99-10.818H26.399z" fill="#5F5E6A"/><path d="M87.682 127.455c4.268 0 7.22 4.266 5.718 8.261l-.051.133a6.107 6.107 0 01-5.718 3.958h19.463c.052-.513.16-1.028.347-1.535l3.99-10.818h-23.75v.001z" fill="#4B4A55"/><path d="M117.473 108.641h47.386v15.309h-47.386v-15.309z" fill="#21212B"/><path d="M141.166 162.825c-14.215 0-25.781-11.565-25.781-25.781s11.566-25.781 25.781-25.781c14.216 0 25.782 11.565 25.782 25.781 0 14.215-11.566 25.781-25.782 25.781zm0-40.335c-8.025 0-14.554 6.529-14.554 14.554s6.529 14.554 14.554 14.554 14.554-6.529 14.554-14.554-6.528-14.554-14.554-14.554z" fill="#363540"/><path d="M141.166 162.825c-14.215 0-25.781-11.565-25.781-25.781s11.566-25.781 25.781-25.781c14.216 0 25.782 11.565 25.782 25.781 0 14.215-11.566 25.781-25.782 25.781zm0-40.335c-8.025 0-14.554 6.529-14.554 14.554s6.529 14.554 14.554 14.554 14.554-6.529 14.554-14.554-6.528-14.554-14.554-14.554z" fill="#363540"/><path d="M157.799 156.72c-4.212-.736-4.863-3.513-4.853-5.191a1.522 1.522 0 00-1.174-1.502c-1.015-.235-1.714-.642-2.194-1.118a14.462 14.462 0 01-8.411 2.689c-8.025 0-14.554-6.529-14.554-14.554 0-6.357 4.098-11.772 9.79-13.75-.189-.866-.035-1.714.186-2.371a1.521 1.521 0 00-.712-1.812c-4.243-2.389-1.107-7.021-1.087-7.05-11.142 2.846-19.405 12.967-19.405 24.983 0 14.215 11.566 25.781 25.781 25.781 6.335 0 12.14-2.301 16.633-6.105z" fill="#21212B"/><path d="M141.166 151.598c8.038 0 14.554-6.516 14.554-14.554 0-8.039-6.516-14.555-14.554-14.555s-14.554 6.516-14.554 14.555c0 8.038 6.516 14.554 14.554 14.554z" fill="#D6D6D0"/><path d="M141.166 151.598c3.133 0 6.035-.998 8.412-2.689-.784-.777-.98-1.74-.997-2.444a1.509 1.509 0 00-.946-1.354c-11.12-4.56-9.798-14.726-9.048-17.99.137-.597-.114-1.201-.611-1.559-.951-.684-1.403-1.483-1.573-2.268-5.692 1.978-9.791 7.393-9.791 13.75 0 8.025 6.529 14.554 14.554 14.554z" fill="#C6C6C1"/><path d="M141.167 154.878c-9.834 0-17.835-8-17.835-17.834s8.001-17.835 17.835-17.835c9.834 0 17.834 8 17.834 17.835 0 9.834-8 17.834-17.834 17.834zm0-29.108c-6.217 0-11.274 5.057-11.274 11.274 0 6.216 5.057 11.273 11.274 11.273 6.216 0 11.273-5.057 11.273-11.273 0-6.216-5.057-11.274-11.273-11.274z" fill="#EEEFEB"/><path d="M141.167 154.878c4.384 0 8.4-1.593 11.509-4.226a1.493 1.493 0 00-.904-.625c-2.674-.619-3.162-2.428-3.191-3.561a1.49 1.49 0 00-.226-.745 11.217 11.217 0 01-7.188 2.596c-6.216 0-11.273-5.057-11.273-11.273 0-5.279 3.648-9.721 8.554-10.94a1.557 1.557 0 00-.472-.542c-1.999-1.438-1.807-3.387-1.387-4.639a1.491 1.491 0 00-.06-1.099c-7.592 2.047-13.197 8.99-13.197 17.22 0 9.834 8.001 17.834 17.835 17.834z" fill="#D6D6D0"/><path d="M189.857 119.581h-17.355l5.95 16.134a5.522 5.522 0 01-.939 5.445h12.641c1.532 0 2.836-1.212 2.846-2.744v-15.691a3.143 3.143 0 00-3.143-3.144z" fill="#4B4A55"/><path d="M184.707 138.416v-15.691a3.144 3.144 0 013.143-3.144h-15.348l5.95 16.134a5.523 5.523 0 01-.939 5.445h10.04c-1.532 0-2.836-1.212-2.846-2.744z" fill="#363540"/><path d="M179.327 135.715l-11.469-31.098a5.529 5.529 0 00-5.188-3.616h-43.008a5.53 5.53 0 00-5.188 3.616l-11.468 31.098a5.53 5.53 0 003.528 7.188c2.838.897 5.872-.714 6.901-3.508l9.63-26.112a1.87 1.87 0 011.755-1.223h32.692a1.87 1.87 0 011.755 1.223l9.684 26.259a5.53 5.53 0 0010.376-3.827z" fill="#5F5E6A"/><path d="M.795 108.641a92.111 92.111 0 002.339 11.791l.003-.001 1.493 3.519h15.726v-15.309H.795z" fill="#21212B"/><path d="M1.249 111.679a91.842 91.842 0 001.898 8.773l2.037 4.805c3.652 2.647 6.034 6.942 6.034 11.787 0 .706-.055 1.4-.154 2.08l2.035 4.798a92.558 92.558 0 004.978 7.463 25.631 25.631 0 004.368-14.341c0-12.651-9.162-23.195-21.196-25.365z" fill="#21212B"/><path d="M3.137 120.43a91.785 91.785 0 009.97 23.514 17.732 17.732 0 001.391-6.9c0-7.551-4.719-14.016-11.36-16.614z" fill="#EEEFEB"/><path d="M23.355 104.618a5.53 5.53 0 00-5.188-3.617H.11c.18 3.75.587 7.44 1.202 11.059h11.697a1.87 1.87 0 011.755 1.223l9.684 26.258a5.53 5.53 0 0010.376-3.826l-11.469-31.097z" fill="#5F5E6A"/><path d="M114.475 104.618l-11.469 31.097a5.53 5.53 0 003.528 7.188c2.839.897 5.872-.714 6.902-3.507l9.63-26.112a1.87 1.87 0 011.755-1.223c-9.396-2.282-5.158-11.059-5.158-11.059a5.527 5.527 0 00-5.188 3.616zM23.706 105.568l-.35-.95a5.53 5.53 0 00-5.189-3.617H.11c.18 3.75.587 7.44 1.202 11.059h11.697a1.87 1.87 0 011.755 1.223c0-10.106 8.942-7.715 8.942-7.715z" fill="#4B4A55"/></g><defs><clipPath id="bclip0"><path fill="#fff" d="M0 0h193v193H0z"/></clipPath></defs></svg><svg fill="none" viewBox="0 0 192 192" id="car03" xmlns="http://www.w3.org/2000/svg"><g clip-path="url(#cclip0)"><path d="M177.082 130.411c4.297-10.628 6.668-22.242 6.668-34.411 0-50.741-41.134-91.875-91.875-91.875-27.651 0-52.446 12.217-69.29 31.545l-7.622 94.741h162.119z" fill="#D4EDEF"/><path d="M14.963 130.411l-1.132 14.078c16.217 26.046 45.103 43.386 78.044 43.386 38.572 0 71.587-23.773 85.207-57.464H14.963z" fill="#74727F"/><path d="M84.577 130.411H14.963l-1.132 14.078c14.824 23.809 40.235 40.34 69.652 43.005-27.592-8.038-26.539-49.954 1.094-57.083z" fill="#5F5E6A"/><path d="M14.163 145.021h13.22a6.445 6.445 0 006.446-6.445v-4.843H8.082a91.615 91.615 0 006.08 11.288z" fill="#74727F"/><path d="M20.956 138.576v-4.843H8.082a91.615 91.615 0 006.08 11.288h13.222l.008-.001a6.443 6.443 0 01-6.436-6.444z" fill="#4B4A55"/><path d="M0 96c0 13.639 2.976 26.581 8.307 38.22h64.779V45.953H14.822C5.45 60.352 0 77.538 0 96z" fill="#C6C6C1"/><path d="M14.822 45.953C5.45 60.352 0 77.538 0 96c0 13.639 2.976 26.581 8.307 38.22h23.91V47.383c0-.499.026-.97.066-1.43H14.82z" fill="#E9E9E9"/><path d="M60.056 57.32H8.736L5.19 65.51a91.319 91.319 0 00-3.774 14.417v3.571h58.64a2.845 2.845 0 002.846-2.845V60.166a2.845 2.845 0 00-2.846-2.845z" fill="#363540"/><path d="M59.663 97.474H.02c.038 2.455.172 4.886.4 7.291h59.244a3.645 3.645 0 100-7.29zM59.663 111.615H1.328a91.401 91.401 0 001.55 7.291h56.785a3.646 3.646 0 000-7.291z" fill="#C6C6C1"/><path d="M28.269 101.12a3.646 3.646 0 013.645-3.646H.019c.038 2.455.172 4.886.4 7.291h31.495a3.645 3.645 0 01-3.645-3.645zM28.269 115.26a3.645 3.645 0 013.645-3.645H1.328a91.564 91.564 0 001.55 7.291h29.036a3.646 3.646 0 01-3.645-3.646z" fill="#C6C6C1"/><path d="M126.65 46.935l4.188 29.482a3.986 3.986 0 003.904 3.428c2.922.028 6.647.094 9.251.189-3.513-14.63-11.753-35.545-11.753-35.545h-3.467a2.144 2.144 0 00-2.123 2.446z" fill="#363540"/><path d="M132.24 44.49h-3.467a2.144 2.144 0 00-2.123 2.445l3.733 26.283c2.188-.465 4.331-1.487 4.615-3.691.603-4.679 4.722-4.19 4.722-4.19-3.578-10.944-7.48-20.847-7.48-20.847z" fill="#21212B"/><path d="M185.604 117.859a5.19 5.19 0 01-5.175-5.175v-8.511c0-2.846 2.328-5.175 5.175-5.175h.182v-3.08a12.151 12.151 0 00-8.866-11.698c-7.223-2.033-19.839-4.168-41.205-4.375a3.988 3.988 0 01-3.905-3.427l-4.188-29.482-.004-.04H72.6v93.373a5.238 5.238 0 005.238 5.238h46.617v-9.412c0-17.13 13.886-31.016 31.016-31.016 11.155 0 20.929 5.893 26.393 14.732h.73l3.191-1.009v-.943h-.181zM135.754 143.862c.194.558.408 1.107.645 1.645h.184a22.388 22.388 0 01-.829-1.645z" fill="#C6C6C1"/><path d="M112.526 57.32H83.779a3.147 3.147 0 00-3.147 3.147v85.04h35.04v-85.04a3.146 3.146 0 00-3.146-3.146z" fill="#E9E9E9"/><path d="M93.776 138.865v-75.09c0-6.493 4.377-6.454 4.377-6.454H83.779a3.147 3.147 0 00-3.147 3.146v85.04h17.52c-5.024 0-4.376-6.642-4.376-6.642z" fill="#D6D6D0"/><path d="M108.901 93.564V65.413c0-.905-.733-1.638-1.638-1.638H89.131c-.904 0-1.638.733-1.638 1.638v28.151c0 .905.734 1.638 1.639 1.638h18.131c.905 0 1.638-.733 1.638-1.638z" fill="#363540"/><path d="M98.197 93.564V65.413c0-.905.734-1.638 1.638-1.638H89.131c-.905 0-1.638.733-1.638 1.638v28.151c0 .905.734 1.638 1.638 1.638h10.704a1.638 1.638 0 01-1.638-1.638z" fill="#21212B"/><path d="M139.311 96.87h-3.515a3.645 3.645 0 010-7.291h3.515a3.645 3.645 0 010 7.29z" fill="#FFD600"/><path d="M133.825 69.368h-4.042c-2.401 0-4.366 1.886-4.366 4.19v6.614c0 2.306 1.964 4.191 4.366 4.191h4.042c2.402 0 4.366-1.885 4.366-4.19v-6.614c.001-2.305-1.964-4.191-4.366-4.191z" fill="#EEEFEB"/><path d="M131.804 80.172v-6.614c0-1.914 1.358-3.536 3.194-4.032a4.492 4.492 0 00-1.173-.158h-4.042c-2.402 0-4.366 1.885-4.366 4.19v6.614c0 2.305 1.964 4.191 4.366 4.191h4.042c.407 0 .799-.058 1.173-.159-1.836-.495-3.194-2.117-3.194-4.032z" fill="#D6D6D0"/><path d="M90.13 112.446a3.645 3.645 0 01-3.644-3.645v-3.202a3.645 3.645 0 017.29 0v3.202a3.645 3.645 0 01-3.645 3.645z" fill="#C6C6C1"/><path d="M80.632 134.219h35.04v12.184h-35.04v-12.184z" fill="#4B4A55"/><path d="M93.776 134.219H80.632v12.184h17.071l.45-.896c-5.025 0-4.377-6.642-4.377-6.642v-4.646z" fill="#363540"/><path d="M80.632 145.507v7.067a4.22 4.22 0 004.22 4.22h26.6a4.22 4.22 0 004.22-4.22v-7.067h-35.04z" fill="#5F5E6A"/><path d="M98.153 152.574v-7.067h-17.52v7.067a4.22 4.22 0 004.22 4.221h17.52a4.22 4.22 0 01-4.22-4.221z" fill="#4B4A55"/><path d="M60.056 53.676H10.314a91.335 91.335 0 00-5.138 11.866v14.311h-3.76a92.013 92.013 0 00-.99 7.291h59.63a6.498 6.498 0 006.491-6.49V60.165a6.498 6.498 0 00-6.49-6.49zm-27.84 26.177H12.467V60.966h19.75v18.887zm27.04 0H39.507V60.966h19.75v18.887z" fill="#C6C6C1"/><path d="M13.911 47.383h59.175V35.205H22.998a92.19 92.19 0 00-9.087 12.178z" fill="#EEEFEB"/><path d="M41.708 35.205h-18.71a92.216 92.216 0 00-9.087 12.177h18.305c0-10.676 9.492-12.177 9.492-12.177z" fill="#D6D6D0"/><path d="M127.685 47.383l-.063-.447a2.144 2.144 0 012.123-2.446h2.495l-.375-2.467a8.026 8.026 0 00-7.934-6.817H72.6v12.177h55.085z" fill="#EEEFEB"/><path d="M154.721 103.203c-17.129 0-31.016 13.887-31.016 31.016v11.288h12.879a21.746 21.746 0 01-2.78-10.655c0-12.064 9.816-21.88 21.88-21.88 6.242 0 11.878 2.632 15.868 6.839h10.634c-5.19-9.872-15.538-16.608-27.465-16.608z" fill="#5F5E6A"/><path d="M144.551 116.027a4.736 4.736 0 01.01-.523c.056-.776-.438-1.47-1.169-1.737-3.365-1.229-3.531-4.224-3.341-5.868a1.721 1.721 0 00-.154-.93c-9.646 5.259-16.192 15.49-16.192 27.25v11.288h12.879a21.746 21.746 0 01-2.78-10.655c0-8.001 4.32-15.01 10.747-18.825zM187.5 135.98h-13.542a4.513 4.513 0 01-4.5-4.5v-8.279c0-2.475 2.025-4.5 4.5-4.5H187.5c2.475 0 4.5 2.025 4.5 4.5v8.279c0 2.475-2.025 4.5-4.5 4.5z" fill="#4B4A55"/><path d="M180.729 131.48v-8.279c0-2.475 2.025-4.5 4.5-4.5h-11.271a4.513 4.513 0 00-4.5 4.5v8.279c0 2.475 2.025 4.5 4.5 4.5h11.271a4.513 4.513 0 01-4.5-4.5z" fill="#363540"/><path d="M154.721 156.646c-12.366 0-22.427-10.06-22.427-22.426 0-12.366 10.061-22.427 22.427-22.427s22.427 10.061 22.427 22.427-10.061 22.426-22.427 22.426zm0-35.087c-6.981 0-12.66 5.68-12.66 12.661s5.679 12.66 12.66 12.66 12.661-5.679 12.661-12.66c-.001-6.981-5.68-12.661-12.661-12.661z" fill="#21212B"/><path d="M166.517 146.843c-.119-.725-.664-1.319-1.389-1.439-1.2-.198-2.021-.666-2.588-1.238a12.599 12.599 0 01-7.819 2.714c-6.981 0-12.66-5.68-12.66-12.661 0-4.34 2.196-8.176 5.535-10.458-.504-1-.471-2.104-.314-2.951.142-.767-.252-1.517-.945-1.871-1.618-.826-1.856-2.331-1.776-3.435a1.66 1.66 0 00-.324-1.102c-7.097 3.77-11.943 11.236-11.943 19.817 0 12.366 10.061 22.427 22.427 22.427 6.415 0 12.206-2.712 16.297-7.044-3.361.496-4.274-1.383-4.501-2.759z" fill="#000"/><path d="M163.641 143.172c4.943-4.943 4.943-12.958 0-17.901-4.943-4.944-12.958-4.944-17.902 0-4.943 4.943-4.943 12.958 0 17.901 4.944 4.944 12.959 4.944 17.902 0z" fill="#D6D6D0"/><path d="M162.54 144.166c-.835-.843-1.113-1.918-1.189-2.719a1.753 1.753 0 00-1.203-1.494c-8.261-2.747-9.139-9.724-9.134-12.602a1.739 1.739 0 00-1.098-1.623c-1.222-.484-1.931-1.195-2.32-1.968-3.339 2.282-5.536 6.119-5.536 10.459 0 6.981 5.68 12.66 12.661 12.66a12.592 12.592 0 007.819-2.713z" fill="#C6C6C1"/><path d="M154.721 150.525c-8.991 0-16.306-7.314-16.306-16.306 0-8.991 7.315-16.305 16.306-16.305s16.306 7.314 16.306 16.305c0 8.992-7.315 16.306-16.306 16.306zm0-25.32c-4.971 0-9.015 4.044-9.015 9.015 0 4.97 4.044 9.014 9.015 9.014 4.971 0 9.015-4.044 9.015-9.014 0-4.971-4.044-9.015-9.015-9.015z" fill="#EEEFEB"/><path d="M166.065 145.916a1.631 1.631 0 00-.938-.512c-2.964-.49-3.648-2.611-3.776-3.957a1.722 1.722 0 00-.301-.815 8.986 8.986 0 01-6.329 2.603c-4.971 0-9.015-4.044-9.015-9.015 0-3.482 1.986-6.507 4.883-8.008a1.71 1.71 0 00-.673-.483c-2.803-1.11-2.912-3.416-2.634-4.919a1.7 1.7 0 00-.132-1.024c-5.188 2.732-8.735 8.175-8.735 14.434 0 8.991 7.315 16.305 16.306 16.305 4.406 0 8.407-1.759 11.344-4.609z" fill="#D6D6D0"/><path d="M187.5 118.288h-3.914a4.513 4.513 0 01-4.5-4.5v-10.439c0-2.475 2.025-4.5 4.5-4.5h3.914c2.475 0 4.5 2.025 4.5 4.5v10.439c0 2.475-2.025 4.5-4.5 4.5z" fill="#EEEFEB"/><path d="M187.5 109.523h-3.914a4.513 4.513 0 01-4.5-4.5v8.766c0 2.475 2.025 4.5 4.5 4.5h3.914c2.475 0 4.5-2.025 4.5-4.5v-8.766c0 2.475-2.025 4.5-4.5 4.5z" fill="#D6D6D0"/><path d="M32.283 53.676H10.314a91.335 91.335 0 00-5.138 11.866v14.311h-3.76a92.013 92.013 0 00-.99 7.291h31.79c-5.366-4 0-7.29 0-7.29H12.467V60.965h19.75c-5.492-4.052.066-7.29.066-7.29z" fill="#C6C6C1"/></g><defs><clipPath id="cclip0"><path fill="#fff" d="M0 0h192v192H0z"/></clipPath></defs></svg><svg fill="none" viewBox="0 0 193 193" id="car04" xmlns="http://www.w3.org/2000/svg"><g clip-path="url(#dclip0)"><path d="M92.353 4.146c-36.203 0-67.535 20.835-82.675 51.166L.13 91.58C.045 93.21 0 94.85 0 96.5l16.098 52.105c16.637 24.301 44.582 40.249 76.256 40.249 51.005 0 92.353-41.348 92.353-92.354 0-51.005-41.348-92.354-92.353-92.354z" fill="#D4EDEF"/><path d="M181.65 72.868c-48.848-8.874-57.217 39.132-79.953 31.249-23.91-8.29-25.796 15.033-58.622 3.323-16.366-5.838-29.71-4.826-38.979-2.345l12 43.502c16.635 24.305 44.581 40.257 76.257 40.257 51.006 0 92.354-41.348 92.354-92.354a92.486 92.486 0 00-3.057-23.632z" fill="#5F5E6A"/><path d="M88.645 176.482c-.707-10.342 14.885-16.182 14.321-26.533-.236-4.335-3.434-7.976-7.027-10.414-3.593-2.437-7.704-4.041-11.259-6.533-6.644-4.657-10.984-12.451-11.445-20.552a26.078 26.078 0 01.125-4.388c-7.055 2.832-15.554 4.633-30.284-.621-16.367-5.838-29.71-4.827-38.979-2.346l11.999 43.502c16.635 24.305 44.581 40.257 76.257 40.257 3.199 0 6.358-.163 9.473-.481-6.267-1.583-12.748-5.556-13.18-11.891z" fill="#5F5E6A"/><path d="M34.196 116.318a4.961 4.961 0 01-1.619-6.827l8.113-13.157a4.961 4.961 0 118.446 5.208l-8.113 13.157a4.962 4.962 0 01-6.827 1.619z" fill="#21212B"/><path d="M1.544 79.623A92.516 92.516 0 00.131 91.58l19.25 8.126c4.289 1.811 9.118.553 12.017-2.804l-16.011-6.81a35.778 35.778 0 01-13.843-10.47z" fill="#4B4A55"/><path d="M53.294 107.412l.295.329c.226-.152 3.19-3.509 8.66-4.017l.235-.022 10.585-20.034c-.292-.217-2.035-.874-3.425-3.269l-2.061-3.548c-2.18-.1-6.68-1.153-12.88.24l-12.11 2.72-.097.141c-2.517 3.701-2.096 8.733 1.001 11.964l4.372 4.56c1.984 2.071.902 5.566-1.989 6.086l.416 2.138a8.254 8.254 0 016.998 2.712z" fill="#363540"/><path d="M73.635 83.775c-.3-.14-.586-.3-.867-.471l-11.017 20.852c.421-.037.847-.06 1.278-.06 7.874 0 14.256 6.383 14.256 14.256 0 3.592-1.332 6.87-3.524 9.377h1.84c2.01 0 3.83-1.11 4.751-2.895l15.78-30.585-22.497-10.474z" fill="#4B4A55"/><path d="M65.862 74.755l3.405 5.862a8.89 8.89 0 003.934 3.594l22.667 10.553 7.473-14.484-37.479-5.525z" fill="#5F5E6A"/><path d="M55.412 112.925c0 3.619-2.42 6.876-5.884 7.92l-.353.106c.041.196.086.389.135.582l2.336 3.703a5.318 5.318 0 004.521 2.493h18.406a14.657 14.657 0 003.73-9.786c0-8.129-6.59-14.718-14.719-14.718a14.666 14.666 0 00-10.287 4.196 8.227 8.227 0 012.115 5.504z" fill="#EEEFEB"/><path d="M62.209 103.29a14.675 14.675 0 00-8.912 4.131 8.229 8.229 0 012.115 5.504c0 3.619-2.42 6.876-5.884 7.92l-.353.106c.041.196.086.389.135.582l2.336 3.702a5.317 5.317 0 004.521 2.494h17.594c-18.798-6.231-11.588-24.35-11.552-24.439z" fill="#D6D6D0"/><path d="M155.629 92.675c-20.639 0-37.371 16.731-37.371 37.371 0 20.639 16.732 37.371 37.371 37.371 20.64 0 37.371-16.732 37.371-37.371 0-20.64-16.731-37.371-37.371-37.371zm0 61.728c-13.452 0-24.357-10.905-24.357-24.357s10.905-24.357 24.357-24.357 24.357 10.905 24.357 24.357-10.905 24.357-24.357 24.357z" fill="#21212B"/><path d="M155.629 167.417c7.52 0 14.519-2.223 20.381-6.044l-.035-.005c-5.13-.606-5.923-3.757-5.835-5.93a2.733 2.733 0 00-1.612-2.613c-.717-.321-1.207-.755-1.536-1.235a24.246 24.246 0 01-11.362 2.813c-13.452 0-24.357-10.905-24.357-24.357 0-9.363 5.285-17.487 13.033-21.563l-6.079-11.514c-11.873 6.26-19.969 18.722-19.969 33.077 0 20.639 16.732 37.371 37.371 37.371zM1.579 113.558a24.266 24.266 0 016.433 16.488c0 1.201-.09 2.381-.259 3.535a92.17 92.17 0 008.345 15.024 37.199 37.199 0 004.928-18.559c0-14.777-8.578-27.55-21.025-33.614L0 96.5c0 5.828.546 11.529 1.579 17.058z" fill="#000"/><path d="M175.187 66.303l-11.627-7.856a26.041 26.041 0 00-14.301-4.461l-21.617-.231-.408-.294-5.876 2.66 6.37 11.783c5.64-2.618 18.914-7.776 27.042-2.764 5.72 3.527 13.226 4.903 18.893 5.424 2.409.222 3.529-2.907 1.524-4.261z" fill="#BF0000"/><path d="M145.503 53.946l-17.861-.191-.408-.294-5.876 2.66 6.37 11.783c3.92-1.82 11.528-4.863 18.533-4.87h-.002c-5.78-4.095-.756-9.088-.756-9.088z" fill="#BF0000"/><path d="M104.735 42.998l-9.902 12.018 21.857 10.125-11.955-22.143z" fill="#4B4A55"/><path d="M155.629 157.668c-15.231 0-27.622-12.391-27.622-27.622s12.391-27.623 27.622-27.623 27.623 12.392 27.623 27.623c0 15.231-12.392 27.622-27.623 27.622zm0-48.407c-11.461 0-20.785 9.324-20.785 20.785s9.324 20.786 20.785 20.786 20.786-9.325 20.786-20.786c0-11.461-9.325-20.785-20.786-20.785z" fill="#5F5E6A"/><path d="M169.684 153.812a2.73 2.73 0 00-1.157-.987c-3.048-1.365-2.003-4.768-1.865-5.176a20.655 20.655 0 01-11.033 3.182c-11.461 0-20.785-9.324-20.785-20.785 0-7.978 4.52-14.917 11.132-18.4l-3.191-6.044c-8.778 4.632-14.778 13.848-14.778 24.443 0 15.232 12.391 27.623 27.622 27.623 5.13 0 9.934-1.41 14.055-3.856z" fill="#4B4A55"/><path d="M155.629 145.671c8.63 0 15.625-6.996 15.625-15.625 0-8.63-6.995-15.625-15.625-15.625-8.629 0-15.625 6.995-15.625 15.625 0 8.629 6.996 15.625 15.625 15.625z" fill="#EEEFEB"/><path d="M163.73 143.41c-3.201-.719-3.818-2.675-3.81-4.102.005-.828-.381-1.605-1.067-2.068-1.22-.822-.636-2.406-.636-2.406l-9.835-18.63c-4.979 2.612-8.378 7.829-8.378 13.841 0 8.63 6.996 15.626 15.625 15.626 2.966 0 5.739-.826 8.101-2.261z" fill="#D6D6D0"/><path d="M155.629 138.942a8.896 8.896 0 100-17.793 8.896 8.896 0 00-8.896 8.897 8.896 8.896 0 008.896 8.896z" fill="#C6C6C1"/><path d="M.758 108.38a91.918 91.918 0 002.152 11.185L6.21 129.85a91.797 91.797 0 003.792 8.491 27.51 27.51 0 001.274-8.295c0-8.776-4.118-16.603-10.519-21.666z" fill="#5F5E6A"/><path d="M103.087 79.822l-23.121 44.813a4.894 4.894 0 01-4.365 2.659H56.168a4.884 4.884 0 01-4.154-2.291l-2.833-4.49a8.691 8.691 0 01-2.041.25 8.665 8.665 0 01-4.868-1.487l-3.562.96 5.94 9.414a13.55 13.55 0 0011.518 6.352H75.6a13.57 13.57 0 0012.103-7.374l24.72-47.91-9.337-.896z" fill="#363540"/><path d="M74.946 127.294H56.168a4.884 4.884 0 01-4.154-2.291l-2.833-4.491a8.692 8.692 0 01-2.041.251 8.674 8.674 0 01-4.868-1.487l-3.563.96 5.94 9.413a13.55 13.55 0 0011.519 6.353H75.6c.579 0 1.15-.041 1.714-.112-6.29-2.852-2.369-8.596-2.369-8.596z" fill="#21212B"/><path d="M43.811 91.615a9.102 9.102 0 01-.955-11.418L4.014 69.501a91.773 91.773 0 00-2.617 10.926 35.811 35.811 0 0013.555 10.101l28.701 12.207a4.07 4.07 0 004.53-6.56l-4.372-4.56z" fill="#D6D6D0"/><path d="M42.856 80.198L4.014 69.5a91.773 91.773 0 00-2.617 10.926 35.81 35.81 0 0013.555 10.101l16.036 6.82c-2.905-12.56 10.345-11.067 10.345-11.067l.004-.005a9.08 9.08 0 011.52-6.078z" fill="#C6C6C1"/><path d="M121.613 56.483l6.029-2.728a3.645 3.645 0 001.672-5.113L124.6 40.29a3.646 3.646 0 00-3.175-1.853h-9.568l9.756 18.047z" fill="#4B4A55"/><path d="M150.842 132.634L100.01 38.607a5.442 5.442 0 019.576-5.176l50.831 94.027a5.443 5.443 0 01-9.575 5.176z" fill="#EEEFEB"/><path d="M129.207 81.38a6.161 6.161 0 016.529.422l-26.15-48.372a5.442 5.442 0 10-9.575 5.177l25.968 48.037a6.16 6.16 0 013.228-5.264z" fill="#D6D6D0"/><path d="M106.347 39.149a7.94 7.94 0 000-11.232 7.941 7.941 0 10-11.23 11.232 7.941 7.941 0 0011.23 0z" fill="#363540"/><path d="M78.874 39.267a4.961 4.961 0 013.597-6.024l14.987-3.783a4.96 4.96 0 112.428 9.62l-14.987 3.783a4.961 4.961 0 01-6.025-3.596z" fill="#4B4A55"/><path d="M2.884 119.486a91.638 91.638 0 003.331 10.376l36.641-9.872c-2.387-1.453-3.99-4.072-3.99-7.064 0-1.183.255-2.306.703-3.324l-36.685 9.884z" fill="#EEEFEB"/><path d="M20.802 125.931l22.054-5.942c-2.387-1.452-3.99-4.071-3.99-7.064 0-1.182.255-2.305.703-3.323l-21.524 5.799s6.658 2.801 2.757 10.53z" fill="#D6D6D0"/><path d="M40.608 57.93c-9.084 0-21.675-1.398-30.93-2.618a91.94 91.94 0 00-2.962 6.566L29.723 66.7l14.971 2.283c3.635.554 7.348.183 10.802-1.078 4.197-1.533 10.223-3.775 15.591-5.922 4.245-1.698 6.19-3.69 7.046-5.367.054-.106.112-.208.17-.312-.058-.041-.11-.083-.17-.124-13.853-9.65-21.415 1.75-37.525 1.75z" fill="#363540"/><path d="M59.342 63.831c-5.976-3.032-2.38-9.355-2.38-9.355-4.706 1.584-9.829 3.455-16.354 3.455-9.085 0-21.675-1.399-30.93-2.619a91.924 91.924 0 00-2.963 6.566L29.723 66.7l14.97 2.283c3.635.554 7.349.183 10.802-1.078a740.879 740.879 0 005.372-1.985 2.84 2.84 0 00-1.525-2.089z" fill="#21212B"/><path d="M55.715 114.302a8.708 8.708 0 10-17.19-2.785 8.708 8.708 0 0017.19 2.785z" fill="#C6C6C1"/><path d="M124.671 77.886l-4.079-7.494a23.406 23.406 0 00-11.022-10.185l-19.677-8.778a8.974 8.974 0 00-5.579-.57l-.013.003c-2.697.592-4.912 2.423-6.167 4.882-.856 1.678-2.801 3.67-7.047 5.368-5.368 2.147-11.394 4.388-15.59 5.921a21.872 21.872 0 01-10.802 1.078L29.724 65.83l13.133 14.368 11.941-2.683a29.105 29.105 0 019.158-.575l57.684 5.533c2.483.239 4.224-2.395 3.031-4.586z" fill="#BF0000"/><path d="M60.802 67.13a2.855 2.855 0 00-.18-1.99 766.183 766.183 0 01-5.127 1.894 21.871 21.871 0 01-10.801 1.078l-14.971-2.283 13.133 14.368 11.942-2.683a29.105 29.105 0 019.157-.575l3.363.323c-7.4-2.135-7.332-7.13-6.516-10.133z" fill="#BF0000"/><path d="M4.014 69.501l38.842 10.697-13.133-14.369-22.68-4.753a91.83 91.83 0 00-3.03 8.425z" fill="#EEEFEB"/></g><defs><clipPath id="dclip0"><path fill="#fff" d="M0 0h193v193H0z"/></clipPath></defs></svg></svg>