<svg width="24" height="24" viewBox="0 0 24 24" fill="none" xmlns="http://www.w3.org/2000/svg">
<g clip-path="url(#clip0)">
<path d="M12.6586 18.2074L23.7286 7.10666C24.0911 6.74296 24.0905 6.15412 23.7267 5.79103C23.363 5.42822 22.7739 5.42915 22.4111 5.7929L12 16.2329L1.58887 5.79253C1.22606 5.42883 0.637268 5.42789 0.27352 5.79065C0.091177 5.97267 5.72205e-06 6.21112 5.72205e-06 6.44957C5.72205e-06 6.68742 0.0905666 6.92493 0.271645 7.10662L11.3414 18.2074C11.5156 18.3825 11.7528 18.4808 12 18.4808C12.2471 18.4808 12.484 18.3823 12.6586 18.2074Z" fill="black"/>
</g>
<defs>
<clipPath id="clip0">
<rect width="24" height="24" fill="white" transform="translate(24) rotate(90)"/>
</clipPath>
</defs>
</svg>
